Coordinates
version=1
nRows=13
nColumns=40
inDegrees=yes

Units are S.I. units (second, meters, Newtons, ...)
If the header above contains a line with 'inDegrees', this indicates whether rotational values are in degrees (yes) or radians (no).

endheader
time	pelvis_tilt	pelvis_list	pelvis_rotation	pelvis_tx	pelvis_ty	pelvis_tz	hip_flexion_r	hip_adduction_r	hip_rotation_r	knee_angle_r	knee_angle_r_beta	ankle_angle_r	subtalar_angle_r	mtp_angle_r	hip_flexion_l	hip_adduction_l	hip_rotation_l	knee_angle_l	knee_angle_l_beta	ankle_angle_l	subtalar_angle_l	mtp_angle_l	lumbar_extension	lumbar_bending	lumbar_rotation	arm_flex_r	arm_add_r	arm_rot_r	elbow_flex_r	pro_sup_r	wrist_flex_r	wrist_dev_r	arm_flex_l	arm_add_l	arm_rot_l	elbow_flex_l	pro_sup_l	wrist_flex_l	wrist_dev_l
      0.53000000	     13.59048784	     -1.08480679	     -1.64707211	     -0.50665422	      0.94788516	      0.27598261	      8.59206583	      2.85172409	      0.53243789	      3.67744839	      0.06418358	      2.64870646	      0.00000000	      0.00000000	    -27.34530313	      3.72948321	      1.07244810	      7.78798006	      0.13592589	     14.30985482	      0.00000000	      0.00000000	    -30.10157538	     -0.07297589	      3.63743996	     -7.14458303	      5.83690550	    -38.07666996	     40.22741785	     88.57940521	     -9.77745246	      5.31828211	     18.81191752	     -0.28100569	     -2.81322346	     62.51857020	     89.37540800	     -5.08499811	      7.30920963
      0.54000000	     13.57361838	     -1.29518115	     -1.56137539	     -0.49441089	      0.94666365	      0.27704713	      8.34366585	      3.28378726	      0.81578971	      2.94822948	      0.05145631	      2.14159093	      0.00000000	      0.00000000	    -27.73900191	      3.40118748	      0.84086705	      8.66657824	      0.15126033	     14.51456481	      0.00000000	      0.00000000	    -30.10416330	      0.15059542	      3.78868551	     -7.23203706	      5.90310187	    -38.30082708	     39.81750829	     88.57272744	     -9.86513663	      5.13707774	     19.05290779	     -0.20602405	     -2.32233989	     63.18892524	     89.38995451	     -4.46289915	      7.27409571
      0.55000000	     13.47227094	     -1.52463705	     -1.47171144	     -0.48185966	      0.94555724	      0.27809886	      8.21454849	      3.72260698	      0.91433974	      2.70345850	      0.04718425	      1.86070642	      0.00000000	      0.00000000	    -28.01600788	      3.03717938	      0.66434840	      9.61444120	      0.16780365	     14.40717947	      0.00000000	      0.00000000	    -29.98713949	      0.42148081	      3.83694425	     -7.27452850	      5.93602495	    -38.48759043	     39.35308921	     88.56144073	     -9.95861883	      5.07828090	     19.12922846	     -0.21245389	     -1.84149991	     63.81688080	     89.40273532	     -3.98118697	      7.20805280
      0.56000000	     13.35424927	     -1.84776628	     -1.38625916	     -0.46909620	      0.94471326	      0.27910390	      8.09129548	      4.24543630	      0.81447212	      2.79183679	      0.04872674	      1.38678896	      0.00000000	      0.00000000	    -28.21844617	      2.57338060	      0.47701719	     10.69258103	      0.18662074	     14.16144559	      0.00000000	      0.00000000	    -29.86688894	      0.79833178	      3.91757568	     -7.29358533	      5.91935136	    -38.63773804	     38.87371218	     88.55541710	    -10.06993763	      5.04248068	     19.10066014	     -0.17648007	     -1.50742270	     64.36983009	     89.41372927	     -3.53827622	      7.12119249
      0.57000000	     13.22044343	     -2.17687812	     -1.37371337	     -0.45613925	      0.94411172	      0.28023170	      7.97219077	      4.77023439	      0.81920425	      3.17595361	      0.05543085	      0.99953712	      0.00000000	      0.00000000	    -28.39332127	      2.13808001	      0.55892092	     11.78148019	      0.20562562	     13.61014619	      0.00000000	      0.00000000	    -29.73987537	      1.13834678	      4.10059152	     -7.31801317	      5.88027122	    -38.77322709	     38.38875285	     88.54877249	    -10.15995104	      5.08984952	     18.99120401	     -0.08709252	     -1.24355461	     64.87658215	     89.43195577	     -3.31094681	      7.02413126
      0.58000000	     13.09483602	     -2.73676278	     -1.23746867	     -0.44276996	      0.94386451	      0.28112578	      7.78395834	      5.49246214	      0.16351193	      3.69737342	      0.06453134	     -0.06462643	      0.00000000	      0.00000000	    -28.42747850	      1.38231604	      0.04764388	     13.25494927	      0.23134251	     13.11190337	      0.00000000	      0.00000000	    -29.55734861	      1.80425981	      4.12963648	     -7.30875893	      5.78976651	    -38.83503191	     37.89730418	     88.56351779	    -10.35273712	      5.07295033	     18.69438233	     -0.03095693	     -1.19899529	     65.20096404	     89.44065218	     -2.84756345	      6.87853876
      0.59000000	     12.96468034	     -3.45012207	     -1.05982199	     -0.42907031	      0.94394185	      0.28191342	      7.52802803	      6.34369054	     -0.32057044	      4.29860953	      0.07502489	     -1.13444677	      0.00000000	      0.00000000	    -28.44481135	      0.47108785	     -0.02325817	     14.73340168	      0.25714637	     12.40266856	      0.00000000	      0.00000000	    -29.38831169	      2.64935545	      4.10376209	     -7.25393530	      5.63049555	    -38.70904954	     37.34553024	     88.57400505	    -10.73734873	      5.08368129	     18.19114170	      0.06933228	     -1.46172125	     65.56981717	     89.44978884	     -2.10889960	      6.64914764
      0.60000000	     12.87077835	     -3.99032760	     -1.01254842	     -0.41536887	      0.94435384	      0.28293629	      7.23994435	      7.00760407	     -0.71824519	      5.05941148	      0.08830339	     -2.13896053	      0.00000000	      0.00000000	    -28.35734114	     -0.24406938	     -0.27086176	     16.47083409	      0.28747029	     11.23442004	      0.00000000	      0.00000000	    -29.24456989	      3.24442328	      4.17160291	     -7.19988434	      5.50038592	    -38.65935237	     36.83646247	     88.58501953	    -11.06702280	      5.19386390	     17.70504456	      0.16850671	     -1.64956761	     65.76480685	     89.45663977	     -1.67630296	      6.54032257
      0.61000000	     12.85552603	     -4.46254250	     -1.02604995	     -0.40170227	      0.94515412	      0.28394191	      6.82870292	      7.57632752	     -0.76879696	      5.85154684	      0.10212876	     -2.87040092	      0.00000000	      0.00000000	    -28.22088141	     -0.85724339	     -0.31844271	     18.40593594	      0.32124418	      9.80258323	      0.00000000	      0.00000000	    -29.20548199	      3.74779051	      4.35142813	     -7.16340644	      5.37165442	    -38.69508203	     36.41304262	     88.59282916	    -11.23809688	      5.31422602	     17.23523463	      0.31981916	     -1.76563000	     65.75065480	     89.46705574	     -1.54399225	      6.49024729
      0.62000000	     12.81529744	     -5.06544839	     -1.00933730	     -0.38767555	      0.94622082	      0.28491030	      6.33614950	      8.26087568	     -1.07448790	      6.50141739	      0.11347114	     -3.90719461	      0.00000000	      0.00000000	    -27.91910296	     -1.65594538	     -0.65554574	     20.63576503	      0.36016204	      8.14415172	      0.00000000	      0.00000000	    -29.09055030	      4.40119043	      4.49423886	     -7.11928699	      5.21365459	    -38.66791798	     36.02421831	     88.61241664	    -11.50121293	      5.49441092	     16.61681608	      0.46698561	     -2.02333586	     65.60295807	     89.46757853	     -1.40378381	      6.39156447
      0.63000000	     12.75320717	     -5.89809416	     -0.84073142	     -0.37348453	      0.94756538	      0.28559737	      5.75401643	      9.15105293	     -1.33061319	      6.94893294	      0.12128176	     -5.01033872	      0.00000000	      0.00000000	    -27.45307400	     -2.75404521	     -0.81455371	     23.11143630	      0.40337066	      6.54276022	      0.00000000	      0.00000000	    -28.94958057	      5.39632841	      4.31892393	     -6.92843609	      4.94679307	    -38.22057410	     35.58496175	     88.63536406	    -12.36478073	      5.95321846	     15.74062284	      0.62406500	     -2.80783254	     65.48674331	     89.47194419	     -1.04514737	      5.95863330
      0.64000000	     12.75987245	     -6.37788177	     -0.87057038	     -0.35953818	      0.94914587	      0.28669372	      5.11180867	      9.69047992	     -1.24249276	      7.46739156	      0.13033057	     -5.51449301	      0.00000000	      0.00000000	    -26.86015852	     -3.45312013	     -1.00006246	     25.83554404	      0.45091531	      4.18070890	      0.00000000	      0.00000000	    -28.90118552	      5.86510743	      4.53400263	     -6.87337960	      4.82332947	    -38.20475242	     35.28643803	     88.64638264	    -12.57806092	      6.10458395	     15.09763676	      0.80767363	     -3.08443178	     65.06517577	     89.47402458	     -1.05474642	      5.96495792
      0.65000000	     12.74443918	     -6.95985821	     -0.85757794	     -0.34566789	      0.95085667	      0.28780123	      4.40401037	     10.33771571	     -1.06456825	      7.80454080	      0.13621493	     -5.90418572	      0.00000000	      0.00000000	    -26.06761702	     -4.30324260	     -1.14792283	     28.81700171	      0.50295156	      1.77749927	      0.00000000	      0.00000000	    -28.82959238	      6.45572647	      4.70874039	     -6.77227465	      4.67910407	    -38.11115695	     35.03935460	     88.66502247	    -12.82923813	      6.33517951	     14.42729209	      1.01016497	     -3.52613265	     64.48145082	     89.47397038	     -1.12850745	      5.91704059
